<svg width="4096" height="2731" viewBox="0 0 4096 2731" fill="none" xmlns="http://www.w3.org/2000/svg">
<g clip-path="url(#clip0_2336_1949)">
<rect width="4096" height="2731" fill="#92D8FF"/>
<path d="M483.607 884.622C483.607 748.117 671.329 748.117 688.364 867.531C722.49 799.279 876.086 816.314 824.869 935.783C944.338 901.657 927.247 1089.38 705.399 987C646.303 1035.55 567.452 1027.06 483.552 1004.09C381.173 1072.34 295.83 969.965 398.209 952.874C369.798 880.904 432.335 833.405 483.552 884.622H483.607Z" fill="white"/>
<path d="M996.607 565.622C996.607 429.117 1184.33 429.117 1201.36 548.531C1235.49 480.279 1389.09 497.314 1337.87 616.783C1457.34 582.657 1440.25 770.379 1218.4 668C1159.3 716.554 1080.45 708.064 996.552 685.091C894.173 753.343 808.83 650.965 911.209 633.874C882.798 561.904 945.335 514.405 996.552 565.622H996.607Z" fill="white"/>
<path d="M3748.61 637.622C3748.61 501.117 3936.33 501.117 3953.36 620.531C3987.49 552.279 4141.09 569.314 4089.87 688.783C4209.34 654.657 4192.25 842.379 3970.4 740C3911.3 788.554 3832.45 780.064 3748.55 757.091C3646.17 825.343 3560.83 722.965 3663.21 705.874C3634.8 633.904 3697.33 586.405 3748.55 637.622H3748.61Z" fill="white"/>
<path d="M378.701 440.611C395.792 372.358 297.075 333.682 276.322 423.52C190.979 423.52 190.979 525.898 259.232 525.898C234.428 545.93 281.594 581.554 310.448 560.024C309.561 593.873 377.924 593.929 360.833 560.024C429.862 577.115 481.079 474.681 378.701 440.555V440.611Z" fill="white"/>
<path d="M2296.7 186.611C2313.79 118.358 2215.08 79.6821 2194.32 169.52C2108.98 169.52 2108.98 271.898 2177.23 271.898C2152.43 291.93 2199.59 327.554 2228.45 306.024C2227.56 339.873 2295.92 339.929 2278.83 306.024C2347.86 323.115 2399.08 220.681 2296.7 186.555V186.611Z" fill="white"/>
<path d="M2269.71 1007.62C2269.71 871.117 2081.99 871.117 2064.96 990.531C2030.83 922.279 1877.23 939.314 1928.45 1058.78C1808.98 1024.66 1826.07 1212.38 2047.92 1110C2107.02 1158.55 2185.87 1150.06 2269.77 1127.09C2372.15 1195.34 2457.49 1092.96 2355.11 1075.87C2383.52 1003.9 2320.99 956.405 2269.77 1007.62H2269.71Z" fill="white"/>
<path d="M3261.71 760.622C3261.71 624.117 3073.99 624.117 3056.96 743.531C3022.83 675.279 2869.23 692.314 2920.45 811.783C2800.98 777.657 2818.07 965.379 3039.92 863C3099.02 911.554 3177.87 903.064 3261.77 880.091C3364.15 948.343 3449.49 845.965 3347.11 828.874C3375.52 756.904 3312.99 709.405 3261.77 760.622H3261.71Z" fill="white"/>
<path d="M2927.68 1543.53C2944.77 1458.18 3064.18 1441.15 3115.4 1509.4C3200.74 1372.9 3354.28 1424.06 3354.28 1492.31C3419.43 1395.48 3500.66 1399.59 3593.16 1475.22C3659.75 1437.54 3746.76 1441.09 3757.14 1543.47C3900.3 1458.13 3968.55 1714.1 3746.7 1628.81C3729.28 1726.03 3633.23 1730.47 3490.73 1680.03C3406.5 1756.5 3327.31 1736.96 3251.85 1645.91C3234.76 1680.03 3183.59 1680.03 3166.5 1628.81C3131.88 1758.77 3012.91 1748.28 2927.62 1662.94C2808.15 1714.16 2756.99 1543.47 2927.62 1543.47L2927.68 1543.53Z" fill="white"/>
<path d="M3376.68 124.527C3393.77 39.1843 3513.18 22.149 3564.4 90.4013C3649.74 -46.1033 3803.28 5.05817 3803.28 73.3105C3868.43 -23.519 3949.66 -19.4128 4042.16 56.2196C4108.75 18.5422 4195.76 22.0935 4206.14 124.472C4349.3 39.1288 4417.55 295.103 4195.7 209.815C4178.28 307.033 4082.23 311.472 3939.73 261.032C3855.5 337.497 3776.31 317.964 3700.85 226.906C3683.76 261.032 3632.59 261.032 3615.5 209.815C3580.88 339.772 3461.91 329.284 3376.62 243.941C3257.15 295.158 3205.99 124.472 3376.62 124.472L3376.68 124.527Z" fill="white"/>
<path d="M2715.43 1034.1C2728.59 968.241 2820.52 955.094 2859.95 1007.77C2925.65 902.42 3043.85 941.904 3043.85 994.578C3094 919.849 3156.54 923.018 3227.76 981.388C3279.02 952.31 3346 955.051 3353.99 1034.06C3464.2 968.198 3516.75 1165.75 3345.96 1099.93C3332.54 1174.95 3258.6 1178.38 3148.9 1139.45C3084.05 1198.46 3023.09 1183.39 2964.99 1113.12C2951.84 1139.45 2912.45 1139.45 2899.29 1099.93C2872.64 1200.22 2781.05 1192.13 2715.39 1126.26C2623.42 1165.79 2584.03 1034.06 2715.39 1034.06L2715.43 1034.1Z" fill="white"/>
<path d="M-10.8893 1563.6L-14 1564.31V1567.5V2755.5V2759.5H-10H4101.5H4105.5V2755.5V1808V1804.27L4101.78 1804.01C3880.61 1788.4 3598.5 1746.12 3278.22 1696.3C3245.87 1691.27 3213.13 1686.16 3180.03 1680.99C2885.46 1635.03 2562.01 1584.55 2226.42 1543.53C1479.9 1452.27 672.821 1407.69 -10.8893 1563.6Z" fill="#4B944F" stroke="#191919" stroke-width="8"/>
</g>
<defs>
<clipPath id="clip0_2336_1949">
<rect width="4096" height="2731" fill="white"/>
</clipPath>
</defs>
</svg>
