<svg width="25" height="24" viewBox="0 0 25 24" fill="none" xmlns="http://www.w3.org/2000/svg">
<path d="M20.4286 5.07489C18.9885 4.41556 17.4682 3.94781 15.9065 3.68359C15.6928 4.06562 15.4994 4.45867 15.3272 4.86111C13.6637 4.61044 11.9721 4.61044 10.3086 4.86111C10.1363 4.45871 9.94291 4.06566 9.7293 3.68359C8.16661 3.95005 6.64529 4.4189 5.20372 5.07833C2.34183 9.31255 1.56601 13.4416 1.95392 17.512C3.62992 18.7503 5.50583 19.6921 7.50013 20.2963C7.94918 19.6924 8.34654 19.0516 8.68798 18.3809C8.03946 18.1387 7.41352 17.8399 6.81741 17.4879C6.9743 17.3741 7.12773 17.2569 7.276 17.1431C9.01054 17.9588 10.9037 18.3817 12.8205 18.3817C14.7373 18.3817 16.6304 17.9588 18.365 17.1431C18.515 17.2655 18.6684 17.3827 18.8236 17.4879C18.2263 17.8405 17.5992 18.1399 16.9495 18.3827C17.2906 19.0531 17.6879 19.6933 18.1374 20.2963C20.1334 19.6945 22.0107 18.7532 23.687 17.5138C24.1422 12.7934 22.9095 8.70224 20.4286 5.07489ZM9.17933 15.0087C8.09836 15.0087 7.20532 14.0278 7.20532 12.821C7.20532 11.6141 8.06733 10.6245 9.17588 10.6245C10.2844 10.6245 11.1706 11.6141 11.1516 12.821C11.1327 14.0278 10.281 15.0087 9.17933 15.0087ZM16.4616 15.0087C15.3789 15.0087 14.4893 14.0278 14.4893 12.821C14.4893 11.6141 15.3514 10.6245 16.4616 10.6245C17.5719 10.6245 18.4512 11.6141 18.4322 12.821C18.4132 14.0278 17.5633 15.0087 16.4616 15.0087Z" fill="#0353E6"/>
</svg>
