<svg width="446" height="113" viewBox="0 0 446 113" fill="none" xmlns="http://www.w3.org/2000/svg">
<path d="M411.599 12.4391C413.183 12.5725 414.569 13.8432 415.758 16.2513C417.157 18.9825 417.642 22.8925 417.214 27.9813C417.386 30.7788 417.31 34.0985 416.986 37.9404L416.492 43.8044C415.991 45.527 415.445 46.3635 414.855 46.3138C414.181 46.257 413.833 46.3635 413.81 46.6331C412.342 46.3397 411.663 45.5358 411.773 44.2215C411.554 44.203 411.459 43.7199 411.488 42.772L412.135 35.0882C412.158 34.8186 411.967 34.6668 411.563 34.6327L404.5 36.2779C403.152 36.1644 402.405 36.9838 402.257 38.7363C401.941 38.8624 401.558 40.1877 401.108 42.7122C400.471 44.4235 399.454 45.2203 398.055 45.1025C396.876 45.0031 396.287 43.9353 396.289 41.8991L398.234 33.3065L398.336 32.0933C399.016 31.6754 400.221 28.6544 401.951 23.0303L403.909 19.1224C406.631 15.0074 408.633 13.0038 409.913 13.1117C409.936 12.8421 410.498 12.6179 411.599 12.4391ZM410.616 19.28C408.748 20.9045 407.088 23.6836 405.637 27.6172L405.045 29.8074L405.231 30.0266L405.635 30.0607C410.194 29.121 412.492 28.4321 412.529 27.994C412.585 22.2968 411.947 19.3921 410.616 19.28ZM424.551 10.3736C425.475 11.0963 426.783 11.6816 428.476 12.1297L428.881 12.1637L431.78 11.5933L433.195 11.7126C433.667 11.7523 434.313 12.1461 435.132 12.8939L438.367 13.1664C440.929 13.3821 442.152 14.164 442.039 15.512C440.807 17.8519 439.087 18.9289 436.879 18.743L435.06 18.5897C434.723 18.5613 434.023 22.0321 432.961 29.0021L430.811 40.0212L430.996 40.2404L431.4 40.2745L432.226 40.1404L432.412 40.3597L432.614 40.3767C434.029 40.4959 435.81 40.3065 437.956 39.8085L438.967 39.8936C440.096 39.9887 440.708 40.7869 440.802 42.2882C440.148 44.8125 437.816 45.9058 433.806 45.5681C430.389 45.8403 428.641 46.4398 428.563 47.3665C428.04 47.7298 427.147 47.8582 425.883 47.7518L424.553 46.6215L419.868 46.6342C418.289 46.043 417.554 45.0987 417.663 43.8012L417.731 42.9924C417.838 41.7286 418.726 40.8531 420.396 40.3659L424.036 40.6724C425.114 40.7633 425.784 39.2584 426.045 36.158C427.186 30.671 428.158 24.7794 428.959 18.4832L428.387 18.0277L427.359 18.1447L424.747 17.7211L423.702 18.0404C421.933 17.8914 420.855 16.986 420.469 15.3244L420.352 14.2963C421.366 11.5308 422.765 10.2232 424.551 10.3736Z" fill="white"/>
<path d="M50.568 28.202C51.2646 29.6667 51.9255 33.9 52.5685 40.902C53.1937 47.904 53.5152 55.6741 53.5152 64.2122C53.5152 78.5556 52.3899 88.219 50.1571 93.1847C48.9604 95.8462 45.7809 97.8111 40.6008 99.0614C36.9569 99.9724 33.0808 100.419 28.9547 100.419C24.2569 100.419 19.8628 99.8652 15.7366 98.7399C11.2532 97.5431 8.21662 95.9713 6.60902 94.0243C2.19705 88.7728 0 82.7532 0 75.9656C0 69.1779 2.30423 63.7121 6.93055 59.5859C10.9853 57.2817 14.8792 56.1206 18.5767 56.1206C20.613 56.1206 23.1137 56.7101 26.0788 57.9069C29.0618 59.1036 30.7587 59.6931 31.1696 59.6931C31.7948 59.6931 32.2949 59.443 32.6343 58.9607C33.8311 57.1388 34.4205 54.4773 34.4205 50.9763C34.4205 48.5292 33.9204 44.921 32.9022 40.1697C31.8841 35.4183 31.3839 31.8459 31.3839 29.4702C31.3839 28.845 31.4554 28.3449 31.5983 28.0055C32.2949 25.4155 35.4387 24.1294 41.0474 24.1294C46.6561 24.1294 49.6213 25.4869 50.6037 28.2198L50.568 28.202ZM33.0451 78.1626C33.0451 74.4473 31.6519 72.3931 28.8475 71.9644C27.0255 71.6786 25.7037 71.5357 24.8642 71.5357C21.9169 71.5357 20.1129 72.929 19.3984 75.7334C19.184 76.5729 19.0769 77.2695 19.0769 77.8232C19.0769 80.4847 21.4168 82.2352 26.1146 83.0747C27.6507 83.3605 29.1869 83.0033 30.7409 82.0209C32.277 81.0384 33.0451 79.7524 33.0451 78.1448V78.1626Z" fill="white"/>
<path d="M96.1347 34.918C107.888 34.918 113.765 41.8842 113.765 55.8168C112.157 65.3373 107.227 70.0887 98.9569 70.0887C97.4922 70.0887 95.2952 69.785 92.4015 69.1956C89.4899 68.6061 87.3822 68.3025 86.0425 68.3025C85.5603 68.3025 85.203 68.3739 84.9887 68.5168C83.7919 69.2134 83.2025 70.2316 83.2025 71.5534C83.2025 72.7502 83.6311 73.8397 84.5064 74.8579C85.3816 75.876 86.4177 76.5548 87.5966 76.912C93.0624 78.3767 96.3848 79.1091 97.5637 79.1091C100.565 79.1091 103.512 78.1981 106.388 76.3762C107.656 75.8225 108.906 75.5367 110.174 75.5367C112.282 75.5367 113.961 76.2511 115.212 77.698C116.48 79.127 116.998 80.8953 116.783 83.0031C116.426 87.0578 115.479 90.0586 113.943 91.9699C112.407 93.899 109.353 95.8103 104.816 97.6858C101.743 98.954 98.5818 99.5792 95.3666 99.5792C92.9909 99.5792 89.5614 99.0612 85.078 98.0073C79.0584 95.7746 75.736 94.4706 75.1109 94.1312C72.9495 92.9345 70.6274 90.9518 68.1803 88.1474C63.9112 83.1817 61.7856 76.394 61.7856 67.7845C61.7856 65.6767 62.1072 63.1224 62.7323 60.1216C65.6082 46.2605 72.0028 38.2225 81.9342 35.9718C85.9175 35.5431 89.1684 35.3109 91.7049 35.2395C94.5092 35.0251 95.9739 34.918 96.1168 34.918H96.1347ZM87.9359 54.495C89.0612 55.2273 90.2759 55.6024 91.6156 55.6024C92.8838 55.6024 94.0627 55.2273 95.188 54.495C96.3133 53.7626 96.867 52.7623 96.867 51.512C96.867 50.2616 96.3133 49.2613 95.188 48.529C94.0627 47.7966 92.8838 47.4215 91.6156 47.4215C90.2759 47.4215 89.0612 47.7966 87.9359 48.529C86.8106 49.2613 86.2569 50.2616 86.2569 51.512C86.2569 52.7623 86.8106 53.7626 87.9359 54.495Z" fill="white"/>
<path d="M131.717 35.8652C133.681 35.3829 135.628 35.1328 137.593 35.1328C142.63 35.1328 145.292 36.3296 145.578 38.7053C146.274 39.4733 146.489 40.6344 146.203 42.1705C145.846 43.9925 145.649 45.0821 145.578 45.4215C145.578 46.261 146.381 46.5825 147.989 46.3681C154.634 42.5278 161.386 40.5987 168.245 40.5987C169.852 40.5987 171.46 40.7058 173.068 40.9202C175.104 40.7773 176.676 41.6525 177.783 43.5459C178.623 45.0106 179.051 46.8683 179.051 49.1011C179.051 50.7801 178.766 52.352 178.212 53.8167C177.444 55.7101 176.354 56.7282 174.961 56.8533C168.102 58.318 162.958 59.4076 159.528 60.1042C153.098 61.5689 149.168 63.4266 147.775 65.6594C146.792 66.6418 146.31 68.3923 146.31 70.9108C146.31 73.1436 146.757 76.5374 147.668 81.0923C148.579 85.6472 149.025 89.041 149.025 91.2738C149.025 93.5066 148.561 94.9177 147.668 95.6857C146.274 98.633 143.077 100.098 138.111 100.098C133.146 100.098 129.787 98.633 128.662 95.6857C126.983 94.7033 125.643 89.041 124.679 78.6809C123.982 71.4646 123.625 65.1771 123.625 59.7827C123.625 48.4402 124.679 41.4203 126.769 38.6874C127.322 37.4192 128.966 36.4903 131.699 35.8473L131.717 35.8652Z" fill="white"/>
<path d="M187.553 108.189C186.857 106.724 186.196 102.419 185.553 95.292C184.927 88.165 184.606 80.2699 184.606 71.6067C184.606 56.9954 185.731 47.2248 187.964 42.2591C189.161 39.5976 192.34 37.6506 197.52 36.3824C201.164 35.4715 205.04 35.0249 209.167 35.0249C213.846 35.0249 218.258 35.5786 222.385 36.704C226.868 37.9007 229.905 39.4547 231.512 41.4196C235.924 46.6532 238.121 52.6549 238.121 59.4247C238.121 66.1945 235.817 71.6425 231.191 75.7686C227.136 78.0729 223.242 79.216 219.544 79.216C217.508 79.216 215.007 78.6266 212.042 77.4298C209.059 76.2331 207.38 75.6436 206.952 75.6436C206.326 75.6436 205.826 75.8937 205.487 76.376C204.29 78.1979 203.701 80.8951 203.701 84.4497C203.701 86.9683 204.201 90.7372 205.219 95.7386C206.237 100.74 206.737 104.473 206.737 106.92C206.737 107.546 206.666 108.046 206.523 108.385C205.826 110.975 202.665 112.261 197.074 112.261C191.483 112.261 188.5 110.904 187.517 108.171L187.553 108.189ZM205.094 57.1741C205.094 60.8894 206.487 62.9436 209.292 63.3723C211.114 63.6581 212.435 63.8009 213.275 63.8009C216.222 63.8009 218.026 62.4077 218.741 59.6033C218.955 58.7638 219.062 58.0672 219.062 57.4956C219.062 54.8341 216.722 53.0836 212.024 52.2441C210.488 51.9583 208.952 52.3155 207.398 53.298C205.862 54.2804 205.094 55.5665 205.094 57.1741Z" fill="white"/>
<path d="M243.408 35.2393C243.89 27.6121 248.374 23.861 256.84 24.0039C260.056 24.0754 262.431 24.7899 263.985 26.1653C265.521 27.5228 266.682 29.7913 267.451 32.935C267.736 34.0604 267.879 35.1321 267.879 36.186C267.879 39.9013 266.629 42.795 264.146 44.9027C261.663 47.0105 258.537 48.0465 254.751 48.0465C251.392 48.0465 248.606 46.7604 246.409 44.1704C244.212 41.5804 243.211 38.5974 243.426 35.2393H243.408ZM245.498 56.013C246.766 53.7088 249.838 52.5478 254.733 52.5478C260.056 52.5478 263.449 53.8517 264.914 56.4239C266.039 58.4602 266.593 65.4086 266.593 77.3048C266.593 87.8078 266.129 94.524 265.236 97.4534C264.253 99.7576 260.859 100.919 255.054 100.919C249.731 100.919 246.623 99.8648 245.712 97.7749C244.176 94.2739 243.408 86.6467 243.408 74.8934C243.408 64.1939 244.105 57.8886 245.516 55.9952L245.498 56.013Z" fill="white"/>
<path d="M309.123 34.918C320.877 34.918 326.753 41.8842 326.753 55.8168C325.146 65.3373 320.216 70.0887 311.946 70.0887C310.481 70.0887 308.284 69.785 305.39 69.1956C302.479 68.6061 300.371 68.3025 299.031 68.3025C298.549 68.3025 298.192 68.3739 297.977 68.5168C296.781 69.2134 296.191 70.2316 296.191 71.5534C296.191 72.7502 296.62 73.8397 297.495 74.8579C298.37 75.876 299.406 76.5548 300.585 76.912C306.051 78.3767 309.374 79.1091 310.552 79.1091C313.553 79.1091 316.501 78.1981 319.376 76.3762C320.645 75.8225 321.895 75.5367 323.163 75.5367C325.271 75.5367 326.95 76.2511 328.2 77.698C329.469 79.127 329.987 80.8953 329.772 83.0031C329.415 87.0578 328.468 90.0586 326.932 91.9699C325.396 93.899 322.342 95.8103 317.805 97.6858C314.732 98.954 311.571 99.5792 308.355 99.5792C305.98 99.5792 302.55 99.0612 298.067 98.0073C292.047 95.7746 288.725 94.4706 288.1 94.1312C285.938 92.9345 283.616 90.9518 281.169 88.1474C276.9 83.1817 274.774 76.394 274.774 67.7845C274.774 65.6767 275.096 63.1224 275.721 60.1216C278.597 46.2605 284.992 38.2225 294.923 35.9718C298.906 35.5431 302.157 35.3109 304.694 35.2395C307.498 35.0251 308.963 34.918 309.106 34.918H309.123ZM300.925 54.495C302.05 55.2273 303.265 55.6024 304.604 55.6024C305.873 55.6024 307.051 55.2273 308.177 54.495C309.302 53.7626 309.856 52.7623 309.856 51.512C309.856 50.2616 309.302 49.2613 308.177 48.529C307.051 47.7966 305.873 47.4215 304.604 47.4215C303.265 47.4215 302.05 47.7966 300.925 48.529C299.799 49.2613 299.246 50.2616 299.246 51.512C299.246 52.7623 299.799 53.7626 300.925 54.495Z" fill="white"/>
<path d="M389.629 47.8324C389.629 49.7973 388.629 51.655 386.646 53.3876C384.646 55.1381 382.645 56.0133 380.609 56.0133C379.841 56.0133 379.108 55.8347 378.412 55.4953C374.696 53.6019 371.445 52.6553 368.641 52.6553C366.962 52.6553 365.569 53.0125 364.443 53.7091C363.122 54.6201 362.514 55.8526 362.657 57.3887C362.872 60.2646 367.48 62.8189 376.518 65.0516C381.484 66.3199 385.056 68.0703 387.218 70.3031C389.736 72.8931 391.005 76.6085 391.005 81.4313C391.005 89.6836 386.914 95.2566 378.715 98.1146C374.375 99.6507 369.088 100.419 362.872 100.419C357.62 100.419 352.69 99.7222 348.064 98.3111C342.33 96.4891 338.168 93.8634 335.578 90.4338C335.578 86.7185 335.792 84.1642 336.203 82.771C337.329 78.9842 339.633 77.1086 343.134 77.1086C344.67 77.1086 347.189 77.9839 350.69 79.7344C354.191 81.4849 356.781 82.3601 358.46 82.3601C360.139 82.3601 361.532 81.8064 362.872 80.6811C363.014 80.1988 363.086 79.7701 363.086 79.4129C363.086 77.2515 359.764 75.6975 353.119 74.7865C348.492 74.1614 344.759 72.268 341.883 69.1242C339.151 66.177 337.793 62.801 337.793 58.9427C337.793 52.0837 341.044 46.3142 347.564 41.6164C353.44 37.4188 359.942 35.311 367.087 35.311C372.964 35.311 377.59 36.2577 380.948 38.1511C383.056 39.3479 385.7 41.795 388.933 45.4925C389.415 46.1891 389.665 46.9572 389.665 47.7967L389.629 47.8324Z" fill="white"/>
</svg>
